<?xml version="1.0" standalone="no"?>
<!DOCTYPE svg PUBLIC "-//W3C//DTD SVG 20010904//EN"
 "http://www.w3.org/TR/2001/REC-SVG-20010904/DTD/svg10.dtd">
<svg version="1.0" xmlns="http://www.w3.org/2000/svg"
 width="500.000000pt" height="500.000000pt" viewBox="0 0 500.000000 500.000000"
 preserveAspectRatio="xMidYMid meet">
<metadata>
Created by potrace 1.14, written by Peter Selinger 2001-2017
</metadata>
<g transform="translate(0.000000,500.000000) scale(0.100000,-0.100000)"
fill="#000000" stroke="none">
<path d="M2435 4983 c-83 -43 -109 -138 -60 -218 l24 -40 0 -450 c0 -247 -3
-444 -6 -437 -2 6 -9 9 -15 6 -6 -4 -22 -8 -37 -9 -123 -11 -332 -110 -428
-202 -7 -6 -23 -20 -36 -30 -12 -10 -40 -40 -62 -68 -22 -27 -43 -52 -46 -55
-3 -3 -25 -39 -47 -80 -53 -97 -80 -170 -100 -270 -9 -45 -8 -274 1 -320 4
-19 8 -42 10 -50 1 -8 5 -19 8 -25 8 -13 22 -70 17 -71 -2 0 3 -8 11 -17 7
-10 10 -17 5 -17 -5 0 -4 -4 1 -8 6 -4 26 -37 45 -74 19 -38 38 -68 42 -68 4
0 9 -8 13 -19 9 -30 145 -163 214 -210 112 -76 265 -136 376 -146 17 -1 32 -4
35 -5 3 -1 15 -1 28 0 19 1 22 -4 23 -37 0 -21 2 -114 4 -208 2 -93 6 -196 8
-227 2 -32 0 -58 -5 -58 -5 0 -6 -5 -2 -12 7 -12 15 -246 18 -525 0 -79 5
-143 9 -143 5 0 5 -5 1 -12 -8 -12 -8 -29 -2 -111 2 -21 0 -41 -4 -44 -5 -2
-5 -10 -1 -16 4 -7 8 -55 9 -107 3 -241 9 -408 13 -404 4 4 7 76 14 490 2 111
7 206 11 213 4 6 2 11 -5 11 -8 0 -8 4 1 15 9 11 9 15 1 15 -8 0 -9 5 -1 19 7
14 7 22 0 26 -6 4 -7 11 -3 17 6 11 13 255 17 565 0 79 4 143 8 143 4 0 3 11
-2 24 -5 13 -6 27 -2 30 9 10 10 46 0 46 -5 0 -6 5 -2 11 3 6 7 69 9 140 1 71
4 131 6 133 2 3 22 7 44 10 59 9 75 12 125 27 25 7 50 13 55 15 14 3 136 61
160 76 61 39 126 92 173 139 52 52 142 177 142 197 0 5 6 15 14 21 17 14 73
188 84 265 10 59 8 213 -2 276 -16 98 -88 282 -121 310 -8 7 -15 17 -15 23 0
17 -136 177 -151 177 -4 0 -23 15 -43 34 -41 37 -205 124 -268 141 -5 2 -11 4
-15 5 -5 2 -12 4 -18 5 -5 2 -12 4 -15 5 -16 6 -49 12 -72 13 -16 1 -28 4 -29
7 -1 3 -2 205 -2 448 -2 370 0 446 12 455 19 16 41 71 41 103 0 43 -29 98 -66
123 -41 28 -109 35 -149 14z m115 -79 c53 -53 23 -134 -50 -134 -72 0 -106 82
-55 133 31 30 76 31 105 1z"/>
<path d="M4196 4673 c-4 -5 -11 -8 -14 -8 -10 -1 -105 -37 -117 -45 -17 -11
-110 -44 -117 -42 -5 1 -8 -2 -8 -6 0 -5 -6 -9 -12 -9 -7 0 -50 -17 -96 -36
-45 -20 -86 -37 -90 -38 -15 -4 -78 -30 -94 -39 -10 -6 -22 -10 -28 -10 -15 0
-104 -43 -108 -52 -2 -4 -8 -8 -13 -8 -26 0 -103 -107 -114 -158 -2 -9 -8 -30
-14 -47 -15 -47 -62 -208 -66 -225 -2 -8 -10 -34 -19 -58 -8 -23 -15 -43 -15
-45 0 -1 -2 -9 -5 -17 -21 -63 -43 -150 -37 -150 3 0 30 9 59 19 29 11 56 20
60 21 15 2 88 21 112 30 14 4 72 23 130 40 231 70 249 78 302 131 43 44 52 63
148 299 50 124 94 234 99 245 26 59 81 201 81 208 0 4 -4 7 -8 7 -5 0 -12 -3
-16 -7z"/>
<path d="M770 4635 c0 -2 25 -66 56 -142 31 -76 57 -142 58 -148 4 -12 13 -37
36 -90 9 -22 28 -67 41 -100 13 -33 27 -62 32 -63 4 -2 5 -7 2 -12 -2 -4 9
-35 25 -69 17 -34 30 -66 30 -71 0 -6 4 -10 8 -10 5 0 14 -11 22 -24 13 -25
100 -93 100 -79 0 4 4 3 8 -2 7 -10 120 -53 158 -60 11 -2 19 -4 19 -5 0 -1 7
-3 16 -5 8 -1 56 -15 105 -31 49 -15 94 -29 101 -30 14 -2 81 -23 103 -31 8
-3 20 -7 26 -8 6 -2 21 -6 33 -10 25 -8 25 -12 2 61 -29 92 -63 205 -66 218
-1 6 -4 18 -7 26 -9 25 -32 104 -34 115 -1 10 -9 33 -25 73 -5 13 -7 28 -4 33
4 5 1 9 -5 9 -6 0 -9 4 -5 9 3 5 1 12 -5 16 -5 3 -10 13 -10 21 0 55 -157 167
-280 199 -7 2 -46 19 -95 40 -22 10 -44 19 -50 20 -5 2 -62 24 -125 50 -63 26
-119 48 -125 50 -5 1 -32 12 -60 24 -49 22 -85 33 -85 26z"/>
<path d="M749 3260 c-30 -10 -79 -29 -109 -42 -64 -29 -93 -40 -99 -38 -2 1
-7 -3 -11 -10 -4 -6 -17 -12 -28 -13 -12 -1 -22 -5 -22 -9 0 -4 -3 -7 -7 -6
-5 0 -26 -7 -48 -16 -47 -21 -102 -45 -130 -56 -11 -5 -47 -21 -80 -36 -33
-14 -64 -27 -70 -29 -27 -7 -75 -30 -75 -36 0 -6 9 -10 55 -24 6 -2 53 -22
105 -45 109 -48 143 -63 150 -65 3 0 27 -11 54 -23 27 -12 50 -22 51 -22 1 0
19 -7 39 -15 20 -8 39 -16 43 -16 5 0 13 -4 18 -9 12 -10 161 -70 190 -77 28
-6 104 -5 140 3 26 5 152 68 268 133 62 35 136 71 143 70 4 0 10 4 13 9 3 5
34 23 68 40 34 18 64 35 67 40 2 4 -28 25 -67 46 -113 58 -200 106 -224 122
-13 8 -23 12 -23 8 0 -4 -7 -1 -15 6 -19 16 -102 62 -172 95 -69 32 -152 38
-224 15z"/>
<path d="M4115 3263 c-41 -9 -112 -38 -167 -70 -31 -18 -61 -33 -66 -33 -6 0
-12 -3 -14 -7 -1 -5 -23 -19 -48 -32 -25 -12 -83 -44 -130 -69 -47 -25 -102
-53 -122 -64 -20 -10 -39 -21 -42 -26 -2 -4 25 -23 62 -42 37 -19 70 -39 74
-45 4 -5 8 -7 8 -2 0 4 18 -4 40 -18 22 -14 44 -25 50 -25 5 0 10 -5 10 -11 0
-5 5 -7 10 -4 6 3 10 1 10 -5 0 -6 4 -9 9 -5 5 3 12 1 15 -4 3 -5 34 -24 68
-42 35 -17 87 -45 117 -60 60 -31 138 -49 187 -43 38 4 114 29 174 57 25 11
51 22 59 23 8 2 17 6 20 11 3 4 15 10 26 12 11 1 29 8 40 14 11 6 23 10 28 9
4 -1 7 2 7 8 0 6 3 9 8 9 4 -1 10 0 15 1 4 1 10 3 15 4 4 1 22 10 39 19 18 10
36 18 40 18 5 0 26 9 48 19 22 10 81 35 130 55 50 21 92 39 94 41 4 4 -126 63
-156 70 -13 4 -23 10 -23 15 0 5 -3 8 -7 7 -12 -4 -127 44 -135 56 -4 6 -8 8
-8 4 0 -6 -21 2 -135 52 -105 47 -193 83 -220 91 -36 11 -102 17 -130 12z"/>
<path d="M1732 2239 c-9 -8 -175 -54 -184 -51 -5 1 -8 -3 -8 -10 0 -6 -2 -9
-5 -6 -3 3 -34 -3 -68 -14 -34 -11 -70 -21 -79 -24 -10 -2 -26 -6 -35 -8 -10
-2 -30 -9 -46 -15 -15 -6 -38 -13 -50 -15 -94 -18 -167 -83 -219 -194 -22 -45
-40 -92 -41 -102 -1 -11 -4 -20 -8 -20 -6 0 -15 -25 -24 -60 0 -3 -6 -15 -13
-26 -6 -12 -8 -24 -5 -28 3 -3 1 -6 -5 -6 -7 0 -11 -3 -10 -7 1 -9 -17 -60
-32 -85 -6 -10 -10 -22 -10 -27 0 -5 -10 -31 -22 -58 -12 -26 -22 -50 -23 -53
-2 -6 -11 -28 -42 -104 -13 -32 -21 -62 -16 -66 4 -5 26 0 48 10 22 11 87 37
145 60 58 23 119 47 135 54 17 8 91 38 165 67 74 29 138 57 141 62 3 5 9 8 13
7 19 -3 80 37 111 74 54 62 60 70 56 74 -1 1 2 15 7 30 13 33 71 219 77 247 2
11 20 69 39 129 19 61 33 112 31 115 -3 2 -1 9 4 15 20 26 20 45 0 43 -10 -1
-23 -4 -27 -8z"/>
<path d="M3216 2203 c-3 -4 -2 -11 3 -17 6 -7 12 -23 14 -36 3 -14 10 -36 15
-50 5 -14 10 -28 11 -32 1 -4 3 -13 6 -20 2 -7 15 -51 28 -98 64 -217 90 -296
108 -333 23 -45 80 -107 98 -107 6 0 11 -3 11 -8 0 -9 6 -11 235 -107 11 -5
22 -9 25 -10 7 -2 41 -15 65 -25 41 -16 181 -73 212 -86 17 -8 34 -14 38 -14
7 0 68 -26 97 -41 39 -20 37 -6 -8 101 -19 47 -37 93 -39 102 -2 9 -9 27 -16
40 -7 13 -14 28 -15 34 -1 6 -12 33 -24 60 -13 27 -22 52 -22 56 1 4 -9 31
-22 60 -20 45 -34 77 -41 98 -26 75 -76 168 -109 203 -20 20 -36 34 -36 30 0
-3 -8 1 -17 9 -15 13 -78 42 -93 43 -3 1 -30 8 -60 18 -101 31 -295 89 -325
97 -16 5 -46 13 -65 20 -51 16 -67 19 -74 13z"/>
</g>
</svg>
