<?xml version="1.0" standalone="no"?>
<!DOCTYPE svg PUBLIC "-//W3C//DTD SVG 20010904//EN"
 "http://www.w3.org/TR/2001/REC-SVG-20010904/DTD/svg10.dtd">
<svg version="1.0" xmlns="http://www.w3.org/2000/svg"
 width="500.000000pt" height="500.000000pt" viewBox="0 0 500.000000 500.000000"
 preserveAspectRatio="xMidYMid meet">
<metadata>
Created by potrace 1.14, written by Peter Selinger 2001-2017
</metadata>
<g transform="translate(0.000000,500.000000) scale(0.100000,-0.100000)"
fill="#000000" stroke="none">
<path d="M2585 3930 c-66 -27 -88 -114 -44 -173 22 -31 22 -34 22 -314 0 -290
-2 -304 -39 -309 -42 -6 -120 -27 -130 -35 -6 -5 -14 -6 -17 -2 -4 3 -7 2 -7
-3 0 -6 -16 -16 -35 -24 -19 -8 -35 -17 -35 -21 0 -4 -9 -10 -20 -14 -28 -9
-160 -142 -160 -162 0 -3 -6 -14 -14 -22 -16 -19 -66 -142 -75 -186 -3 -16 -6
-75 -5 -130 0 -102 23 -202 61 -264 75 -123 131 -181 230 -240 71 -42 188 -81
243 -81 16 0 31 -3 31 -7 4 -20 8 -131 14 -383 3 -151 8 -338 10 -415 2 -77 4
-209 6 -293 1 -84 4 -150 7 -147 5 5 7 40 16 470 4 154 9 352 11 440 2 88 5
199 6 248 1 84 2 87 25 88 13 1 27 2 32 4 4 1 25 5 47 10 89 18 211 90 286
167 38 40 89 113 89 127 0 6 4 11 8 11 11 0 50 118 61 184 26 143 -27 350
-117 457 -30 37 -92 99 -97 99 -3 0 -15 9 -27 20 -12 11 -28 20 -35 20 -7 0
-13 3 -13 8 0 14 -151 72 -188 72 -28 0 -49 45 -31 66 6 8 8 14 3 14 -11 0
-11 130 -1 148 5 6 5 12 0 12 -10 0 -10 131 0 148 5 6 5 12 0 12 -10 0 -10
131 0 148 5 6 4 12 -2 12 -5 0 -8 8 -6 19 5 25 28 61 38 61 5 0 7 7 3 15 -3 8
-2 15 3 15 4 0 8 7 8 15 0 8 -3 15 -7 15 -4 0 -5 10 -3 23 4 18 -5 32 -32 55
-37 33 -77 40 -120 22z m73 -72 c7 -7 12 -21 12 -33 0 -49 -51 -61 -74 -17
-13 26 -13 31 2 45 19 20 43 22 60 5z"/>
<path d="M3790 3711 c-45 -25 -388 -161 -406 -161 -8 0 -14 -4 -14 -9 0 -5
-12 -12 -26 -15 -27 -7 -59 -35 -85 -76 -14 -21 -63 -168 -74 -220 -2 -8 -10
-34 -19 -58 -8 -23 -16 -46 -16 -50 0 -4 -6 -24 -12 -45 -6 -20 -9 -39 -6 -42
3 -3 24 1 47 9 23 9 45 16 49 17 16 3 30 8 116 34 49 15 96 29 105 30 9 2 17
4 19 5 1 2 5 3 10 4 74 19 156 101 163 163 1 5 6 17 12 28 6 11 12 25 13 30 2
6 21 55 44 110 23 55 43 105 44 110 1 6 8 20 14 33 7 12 10 22 7 22 -3 0 1 10
10 23 8 13 12 27 8 30 -3 4 -2 7 4 7 5 0 10 7 10 15 0 8 -1 15 -1 14 -1 0 -8
-4 -16 -8z"/>
<path d="M1450 3682 c0 -9 30 -88 51 -137 33 -75 79 -191 79 -197 0 -5 11 -31
25 -60 14 -28 25 -57 25 -64 0 -13 88 -104 98 -102 4 1 16 -2 27 -6 36 -14 70
-25 105 -35 39 -10 238 -69 257 -76 13 -4 13 21 1 41 -4 6 -10 25 -13 43 -3
19 -12 49 -20 67 -8 19 -12 34 -10 34 3 0 0 12 -6 28 -6 15 -13 36 -14 47 -4
22 -32 107 -48 142 -21 47 -93 103 -152 119 -8 2 -283 111 -350 139 -11 5 -22
9 -25 9 -3 1 -11 5 -17 9 -7 5 -13 4 -13 -1z"/>
<path d="M1454 2747 c-21 -4 -57 -17 -80 -27 -22 -11 -46 -20 -52 -20 -7 0
-12 -4 -12 -10 0 -5 -6 -10 -14 -10 -8 0 -45 -14 -83 -31 -37 -17 -68 -30 -68
-29 0 1 -18 -7 -40 -16 -22 -10 -42 -18 -45 -19 -3 -1 -25 -11 -50 -22 l-45
-21 30 -12 c16 -6 46 -18 65 -27 19 -8 44 -19 55 -23 11 -4 43 -18 70 -31 28
-12 55 -24 61 -25 5 -1 37 -14 70 -29 83 -38 135 -56 145 -49 5 3 9 1 9 -4 0
-12 32 -11 49 2 12 9 13 8 6 -4 -8 -13 -7 -13 8 -1 9 7 17 10 17 7 0 -7 238
112 250 124 3 3 30 19 61 35 32 17 58 34 59 39 1 5 -56 40 -127 77 -70 37
-133 71 -138 76 -12 9 -70 37 -100 48 -29 11 -57 12 -101 2z"/>
<path d="M3717 2738 c-10 -5 -22 -6 -27 -3 -6 3 -10 1 -10 -4 0 -6 -7 -11 -15
-11 -8 0 -15 -5 -15 -12 0 -6 -3 -8 -6 -5 -4 4 -19 -2 -34 -13 -16 -11 -35
-20 -44 -20 -9 0 -16 -4 -16 -9 0 -5 -12 -14 -27 -20 -16 -6 -43 -20 -60 -31
-18 -11 -33 -16 -33 -12 0 4 -4 2 -8 -3 -4 -6 -24 -19 -45 -30 -21 -11 -41
-23 -43 -27 -3 -4 17 -18 43 -30 26 -13 50 -26 53 -29 6 -6 37 -19 46 -18 4 0
10 -4 13 -9 9 -15 223 -122 232 -116 4 2 10 0 14 -5 3 -6 11 -8 18 -6 7 2 29
7 51 10 21 3 43 9 50 12 6 4 13 8 16 9 7 1 39 14 90 37 25 11 46 19 48 18 2
-2 14 5 28 13 13 9 24 14 24 10 0 -4 7 -1 15 6 8 7 15 9 15 4 0 -5 4 -3 9 4 4
7 14 15 22 16 8 1 25 8 39 14 14 6 49 21 78 33 29 13 49 26 45 29 -5 4 -48 24
-98 44 -49 21 -103 44 -120 51 -52 23 -110 48 -115 49 -3 1 -15 7 -27 14 -13
7 -23 10 -23 6 0 -3 -6 -1 -14 5 -33 27 -140 46 -169 29z"/>
<path d="M2093 2037 c-3 -5 -11 -6 -19 -3 -8 3 -14 0 -14 -6 0 -6 -3 -9 -6 -5
-3 3 -17 2 -30 -3 -14 -6 -35 -12 -47 -14 -12 -2 -41 -11 -65 -20 -23 -8 -46
-16 -50 -17 -109 -25 -186 -64 -204 -104 -6 -14 -15 -25 -20 -25 -4 0 -7 -3
-6 -7 1 -8 -5 -26 -27 -78 -7 -16 -27 -68 -45 -115 -17 -47 -35 -89 -39 -95
-4 -5 -15 -35 -26 -65 -10 -30 -24 -64 -32 -75 -18 -26 -16 -35 5 -30 15 3
214 82 267 106 26 11 79 31 83 30 1 -1 30 13 65 30 59 30 118 72 117 84 0 3 6
18 14 33 13 26 71 210 82 261 3 14 7 28 10 32 3 5 11 28 18 53 13 42 13 45 -6
43 -11 -1 -22 -5 -25 -10z"/>
<path d="M3124 2013 c2 -10 15 -52 27 -93 12 -41 22 -79 23 -85 1 -5 5 -15 8
-21 4 -6 9 -22 12 -36 2 -15 9 -35 14 -45 5 -10 8 -26 7 -35 -2 -10 1 -18 6
-18 5 0 9 -7 9 -16 0 -18 40 -94 49 -94 4 0 17 -10 31 -23 14 -13 29 -24 33
-24 7 -1 115 -44 162 -64 46 -20 297 -119 302 -119 3 0 1 6 -4 13 -6 6 -16 30
-23 52 -7 22 -16 45 -21 51 -5 6 -6 14 -2 17 3 4 1 7 -5 7 -7 0 -11 3 -10 8 2
9 -5 27 -43 116 -16 38 -29 75 -29 82 0 8 -4 14 -8 14 -5 0 -9 6 -9 13 0 23
-49 122 -74 148 -21 21 -71 51 -91 53 -3 1 -10 4 -14 9 -4 4 -15 7 -23 7 -9 0
-65 16 -125 35 -60 18 -112 34 -115 33 -6 -1 -24 5 -69 23 -20 8 -23 6 -18 -8z"/>
<path d="M2623 655 c0 -8 4 -12 9 -9 5 3 6 10 3 15 -9 13 -12 11 -12 -6z"/>
</g>
</svg>
